PathFileType	4	(X/Y/Z)	Walk9.trc
DataRate	CameraRate	NumFrames	NumMarkers	Units	OrigDataRate	OrigDataStartFrame	OrigNumFrames
200.000000	200.000000	8	67	mm	200.000000	914	954
Frame#	Times		RCAR		LowerBodyModelVer		RUA1		LFHD		LTB3		LTH3		LTB2		RASI		LTB4		RFHD		LACR1		LTH1		RElbow		LToe		RACR1		RBHD		RTH3		LUA1		LCAR		RFA1		RWRU		RLFC		LASI		PELOrigin		RTH4		CLAV		LTH2		LWRR		RTB4		C7		STRN		LLFC		RBack		LElbow		RMT1		LFA1		RTH1		RTB3		LTB1		RTH2		LWRU		RToe		LPSI		RPSI		RTB1		LHJC		MidPelvis		OPelvis		RHJC		SACR		XPelvis		YPelvis		ZPelvis		LTH4		RTB2		RWRR		LElbowM		LMT1		LBHD		RLMAL		RMMAL		RCAL		LMMAL		T10		RElbowM		LCAL		LMT5
			X1	Y1	Z1	X2	Y2	Z2	X3	Y3	Z3	X4	Y4	Z4	X5	Y5	Z5	X6	Y6	Z6	X7	Y7	Z7	X8	Y8	Z8	X9	Y9	Z9	X10	Y10	Z10	X11	Y11	Z11	X12	Y12	Z12	X13	Y13	Z13	X14	Y14	Z14	X15	Y15	Z15	X16	Y16	Z16	X17	Y17	Z17	X18	Y18	Z18	X19	Y19	Z19	X20	Y20	Z20	X21	Y21	Z21	X22	Y22	Z22	X23	Y23	Z23	X24	Y24	Z24	X25	Y25	Z25	X26	Y26	Z26	X27	Y27	Z27	X28	Y28	Z28	X29	Y29	Z29	X30	Y30	Z30	X31	Y31	Z31	X32	Y32	Z32	X33	Y33	Z33	X34	Y34	Z34	X35	Y35	Z35	X36	Y36	Z36	X37	Y37	Z37	X38	Y38	Z38	X39	Y39	Z39	X40	Y40	Z40	X41	Y41	Z41	X42	Y42	Z42	X43	Y43	Z43	X44	Y44	Z44	X45	Y45	Z45	X46	Y46	Z46	X47	Y47	Z47	X48	Y48	Z48	X49	Y49	Z49	X50	Y50	Z50	X51	Y51	Z51	X52	Y52	Z52	X53	Y53	Z53	X54	Y54	Z54	X55	Y55	Z55	X56	Y56	Z56	X57	Y57	Z57	X58	Y58	Z58	X59	Y59	Z59	X60	Y60	Z60	X61	Y61	Z61	X62	Y62	Z62	X63	Y63	Z63	X64	Y64	Z64	X65	Y65	Z65	X66	Y66	Z66	X67	Y67	Z67

914	4.57	1098.3	781.28	274.6	9	2014	4	1073.7	1201.3	233.45	1217.9	1589.5	-86.093	1089.6	164.79	-30.93	1107.1	601.49	-159.9	1094.4	253.21	-99.254	1198.8	980.68	145.67	1112.7	250.91	-41.035	1225.7	1596.9	7.7161	1104	1380	-174.68	1119	760.42	-221.77	1018	1085	261.14	1230.5	25.224	-24.513	1100.4	1381.1	134.66	1071.6	1561.1	42.225	1212.4	586.63	178.77	1111.6	1199.8	-268.2	1241.9	808.92	-296.49	1019	937.84	278.5	1037.4	829.54	281.34	1241.9	510.48	158.99	1220	965.86	-144.2	1209.4	973.27	0.73145	1178.8	663.58	194.66	1166	1342.6	-20.661	1167.6	686.27	-171.95	1214	849.97	-256.02	1197.9	276.38	95.095	1028.7	1423.7	-17.186	1223.4	1239	-9.0701	1100.7	480	-124.9	973.1	1330	87.858	1089.3	1073.4	-299.34	1154.8	50.746	69.312	1124.7	938.84	-310.71	1145.4	743.04	214	1148.8	205.69	93.522	1132.3	336.03	-43.324	1233.6	688.57	195.74	1172.1	831.42	-313.65	1204.6	37.132	109.83	964.32	971.09	-58.411	960.57	971.05	31.416	1247.1	348.27	101.87	1148.8	874.56	-98.01	1085.9	972.17	-6.3831	1209.4	973.27	0.73145	1134.3	884.64	99.103	962.44	971.07	-13.498	1289.2	974.04	6.5381	1208.9	1053.2	-3.388	1203.6	977.34	80.414	1112.6	682.23	-185.92	1169.2	293.89	148.29	1087	836.08	229.05	1050.7	1041	-231.58	1161.2	30.091	2.7723	1063.7	1542.2	-99.747	1054.7	125.89	110.07	1021.6	137.46	35.158	988.99	115.94	62.459	1056.3	66.365	17.839	952.05	1157.6	-22.848	1000.3	1055.4	168.49	982.49	33.518	-32.135	1177.2	23.944	-61.447
915	4.575	1102.3	781.11	274.75	9	2014	4	1078.3	1200.9	233.25	1223.6	1589.2	-86.105	1090.7	164.71	-31.771	1109.5	601.41	-159.85	1095.1	253.13	-99.259	1204.3	980.46	145.09	1113.6	250.83	-41.082	1231.6	1596.5	7.6799	1109.8	1380	-174.65	1122.9	760.16	-221.9	1022.2	1084.7	260.61	1230.7	25.136	-24.434	1105.7	1380.7	134.65	1077.5	1560.8	42.45	1219.9	587.42	178.26	1118	1200	-268.56	1252.8	811.35	-296.04	1022.9	937.54	277.9	1041.2	829.11	280.57	1249.7	511.42	158.23	1224.6	965.45	-144.91	1214.5	972.95	0.092361	1185.7	664.07	194.52	1171.6	1342.3	-20.648	1170.8	685.58	-171.97	1224.2	851.98	-255.66	1211.3	275.75	94.187	1034.3	1423.6	-17.306	1228.7	1238.5	-8.9601	1102.2	479.92	-125	978.33	1329.9	87.478	1096.6	1073.5	-300.01	1175.1	49.384	68.67	1133.7	939.36	-310.93	1151.5	743.21	214.12	1164.3	203.49	92.488	1133.2	335.81	-43.349	1240.3	689.46	195.69	1182.6	832.48	-313.16	1225.5	37.803	109.21	969.25	970.91	-57.883	965.7	970.86	31.968	1258.1	349.02	100.91	1153.4	874.2	-98.411	1091	971.92	-6.4325	1214.5	972.95	0.092361	1139.6	884.4	98.791	967.48	970.89	-12.957	1294.3	973.69	5.6318	1214	1052.8	-4.0727	1208.9	977.08	79.792	1115.8	682.04	-185.91	1182.1	292.31	147.46	1091.5	835.78	228.93	1057.8	1040.8	-232.54	1161.6	29.864	2.9265	1069.3	1542.1	-99.515	1072.6	121.05	109.27	1022.2	137.31	35.129	1007.2	108.9	61.708	1056.3	66.508	18.042	957.41	1157.5	-23.195	1005	1055.2	167.88	982.43	33.731	-32.106	1177.1	24.189	-61.486
916	4.58	1106.4	780.91	274.95	9	2014	4	1082.8	1200.5	233.05	1229.2	1588.8	-86.11	1091.9	164.64	-32.88	1111.9	601.32	-159.81	1095.8	253.04	-99.265	1209.9	980.18	144.55	1114.6	250.75	-41.13	1237.5	1596	7.6509	1115.6	1379.9	-174.62	1126.9	759.87	-222.03	1026.4	1084.4	260.06	1230.9	25.029	-24.353	1111	1380.4	134.64	1083.4	1560.6	42.686	1227.2	588.13	177.73	1124.4	1200.2	-268.91	1263.6	813.74	-295.57	1026.7	937.21	277.27	1044.9	828.64	279.78	1257.2	512.24	157.45	1229.2	965	-145.58	1219.5	972.59	-0.51607	1192.5	664.52	194.36	1177.1	1341.9	-20.639	1174.1	684.88	-171.99	1234.4	853.99	-255.29	1224.7	275.12	93.277	1039.9	1423.4	-17.415	1234	1238.1	-8.8858	1103.8	479.83	-125.09	983.56	1329.7	87.118	1103.8	1073.7	-300.65	1195.5	48.185	68.087	1142.7	939.86	-311.12	1157.7	743.36	214.25	1179.9	201.34	91.471	1134.2	335.58	-43.379	1247	690.25	195.58	1193	833.54	-312.64	1246.4	38.626	108.6	974.19	970.7	-57.335	970.85	970.64	32.541	1269.1	349.76	99.939	1158.1	873.79	-98.791	1096	971.63	-6.4564	1219.5	972.59	-0.51607	1145	884.11	98.502	972.52	970.67	-12.397	1299.4	973.29	4.7617	1219.1	1052.5	-4.7234	1214.2	976.76	79.199	1119	681.84	-185.94	1194.9	290.73	146.63	1095.9	835.44	228.83	1065	1040.6	-233.48	1161.9	29.633	3.0722	1074.9	1542	-99.272	1090.7	116.26	108.49	1036.4	134.12	34.684	1025.6	101.93	60.968	1056.4	66.552	18.178	962.77	1157.4	-23.511	1009.8	1055	167.28	982.37	33.954	-32.076	1177	24.413	-61.51
917	4.585	1110.4	780.68	275.19	9	2014	4	1087.4	1200.1	232.86	1234.9	1588.4	-86.108	1093.3	164.56	-34.179	1114.4	601.22	-159.78	1096.6	252.95	-99.27	1215.4	979.86	144.05	1115.6	250.65	-41.178	1243.4	1595.5	7.6287	1121.5	1379.8	-174.58	1130.9	759.54	-222.19	1030.6	1084.1	259.51	1231.1	24.903	-24.274	1116.2	1380	134.64	1089.4	1560.2	42.932	1234.4	588.76	177.18	1130.9	1200.4	-269.24	1274.3	816.11	-295.08	1030.6	936.84	276.62	1048.7	828.13	278.96	1264.5	512.93	156.65	1233.8	964.52	-146.22	1224.6	972.19	-1.0885	1199.3	664.91	194.18	1182.6	1341.6	-20.633	1177.3	684.18	-172.01	1244.5	855.98	-254.91	1238	274.51	92.367	1045.5	1423.2	-17.512	1239.4	1237.6	-8.8472	1105.5	479.74	-125.17	988.8	1329.5	86.78	1111.1	1073.8	-301.28	1216	47.17	67.57	1151.7	940.35	-311.29	1164	743.48	214.37	1195.5	199.26	90.482	1135.3	335.34	-43.414	1253.6	690.93	195.4	1203.3	834.59	-312.09	1267.2	39.615	108.01	979.14	970.45	-56.771	976.02	970.38	33.129	1279.9	350.48	98.949	1162.8	873.34	-99.143	1101.1	971.3	-6.4549	1224.6	972.19	-1.0885	1150.3	883.77	98.24	977.58	970.42	-11.821	1304.4	972.84	3.9339	1224.2	1052.1	-5.3356	1219.5	976.4	78.641	1122.2	681.63	-185.99	1207.7	289.16	145.79	1100.4	835.07	228.75	1072.1	1040.3	-234.39	1162.2	29.41	3.201	1080.5	1541.8	-99.02	1109	111.56	107.74	1072.1	126.17	33.579	1044.4	95.064	60.237	1056.7	66.499	18.246	968.13	1157.3	-23.796	1014.6	1054.7	166.66	982.31	34.187	-32.041	1176.9	24.6	-61.516
918	4.59	1114.5	780.41	275.46	9	2014	4	1092	1199.7	232.67	1240.5	1588	-86.1	1094.8	164.49	-35.582	1116.9	601.09	-159.75	1097.4	252.85	-99.274	1220.9	979.5	143.58	1116.6	250.55	-41.224	1249.3	1595	7.6132	1127.3	1379.6	-174.54	1134.8	759.19	-222.37	1034.9	1083.7	258.95	1231.3	24.76	-24.203	1121.5	1379.6	134.64	1095.3	1559.9	43.189	1241.5	589.3	176.61	1137.3	1200.5	-269.54	1284.9	818.44	-294.56	1034.5	936.43	275.94	1052.4	827.58	278.13	1271.6	513.47	155.83	1238.4	964	-146.82	1229.6	971.75	-1.6204	1206	665.24	193.99	1188.1	1341.1	-20.63	1180.7	683.47	-172.04	1254.5	857.95	-254.51	1251.2	273.93	91.459	1051.1	1422.9	-17.597	1244.7	1237.1	-8.8435	1107.2	479.63	-125.24	994.06	1329.2	86.468	1118.4	1073.9	-301.88	1236.5	46.36	67.124	1160.6	940.81	-311.44	1170.5	743.57	214.51	1211.2	197.27	89.529	1136.4	335.1	-43.455	1260.2	691.49	195.15	1213.6	835.64	-311.51	1288	40.786	107.46	984.1	970.17	-56.198	981.2	970.1	33.724	1290.6	351.19	97.946	1167.4	872.86	-99.463	1106.1	970.94	-6.4287	1229.6	971.75	-1.6204	1155.5	883.4	98.013	982.65	970.13	-11.237	1309.5	972.36	3.1535	1229.3	1051.6	-5.9056	1224.8	976	78.122	1125.4	681.41	-186.07	1220.5	287.62	144.95	1104.8	834.67	228.71	1079.3	1040	-235.26	1162.5	29.211	3.3036	1086.1	1541.6	-98.758	1127.5	106.99	107.01	1122.3	114.96	32.021	1063.4	88.345	59.513	1057.1	66.399	18.278	973.49	1157.1	-24.05	1019.3	1054.5	166.05	982.26	34.427	-32	1176.9	24.735	-61.499
919	4.595	1118.5	780.12	275.77	9	2014	4	1096.7	1199.2	232.5	1246.2	1587.5	-86.086	1096.3	164.41	-37.001	1119.6	600.95	-159.72	1098.2	252.76	-99.275	1226.4	979.09	143.17	1117.6	250.43	-41.266	1255.3	1594.4	7.604	1133	1379.4	-174.49	1138.8	758.8	-222.57	1039.1	1083.3	258.39	1231.6	24.604	-24.143	1126.8	1379.1	134.64	1101.3	1559.5	43.456	1248.3	589.74	176.02	1143.8	1200.6	-269.82	1295.4	820.72	-294.02	1038.4	935.98	275.24	1056.2	827	277.28	1278.4	513.87	155	1243	963.44	-147.38	1234.7	971.26	-2.108	1212.6	665.51	193.79	1193.7	1340.7	-20.63	1184	682.76	-172.08	1264.4	859.9	-254.1	1264.3	273.38	90.552	1056.7	1422.6	-17.669	1250.1	1236.5	-8.8735	1109	479.51	-125.31	999.33	1328.9	86.181	1125.7	1074	-302.47	1257.1	45.771	66.746	1169.5	941.26	-311.57	1177	743.63	214.65	1226.9	195.41	88.616	1137.5	334.85	-43.497	1266.7	691.93	194.84	1223.7	836.67	-310.91	1308.8	42.155	106.96	989.07	969.86	-55.62	986.41	969.78	34.322	1301.1	351.9	96.932	1172.1	872.33	-99.749	1111.2	970.54	-6.3784	1234.7	971.26	-2.108	1160.8	882.98	97.825	987.74	969.82	-10.649	1314.5	971.83	2.4246	1234.3	1051.1	-6.4303	1230.1	975.56	77.646	1128.7	681.18	-186.17	1233.3	286.11	144.1	1109.2	834.24	228.69	1086.5	1039.7	-236.1	1162.7	29.052	3.371	1091.7	1541.4	-98.486	1146.1	102.58	106.31	1172.8	103.72	30.456	1082.7	81.809	58.798	1057.5	66.317	18.318	978.84	1156.8	-24.273	1024	1054.3	165.42	982.21	34.673	-31.952	1177	24.804	-61.455
920	4.6	1122.5	779.78	276.1	9	2014	4	1101.3	1198.7	232.33	1251.9	1587	-86.066	1097.8	164.33	-38.358	1122.3	600.78	-159.7	1099	252.66	-99.272	1231.8	978.65	142.8	1118.6	250.3	-41.301	1261.2	1593.7	7.601	1138.8	1379.1	-174.44	1142.7	758.37	-222.79	1043.4	1082.9	257.83	1231.7	24.441	-24.098	1132.1	1378.7	134.65	1107.2	1559.1	43.733	1255	590.08	175.43	1150.2	1200.6	-270.07	1305.8	822.96	-293.46	1042.2	935.51	274.51	1060	826.39	276.43	1285	514.12	154.16	1247.6	962.85	-147.9	1239.7	970.75	-2.5481	1219.2	665.71	193.57	1199.2	1340.2	-20.632	1187.4	682.05	-172.11	1274.2	861.82	-253.68	1277.4	272.89	89.648	1062.2	1422.3	-17.728	1255.5	1236	-8.9354	1110.9	479.38	-125.37	1004.6	1328.6	85.921	1133	1074	-303.03	1277.6	45.418	66.429	1178.3	941.69	-311.68	1183.6	743.65	214.81	1242.6	193.69	87.747	1138.8	334.58	-43.54	1273.2	692.25	194.46	1233.8	837.68	-310.28	1329.4	43.735	106.52	994.07	969.52	-55.041	991.65	969.43	34.918	1311.4	352.61	95.914	1176.8	871.77	-99.996	1116.3	970.11	-6.305	1239.7	970.75	-2.5481	1166.1	882.52	97.682	992.86	969.48	-10.062	1319.6	971.26	1.75	1239.4	1050.6	-6.9072	1235.4	975.09	77.217	1132	680.92	-186.28	1246	284.65	143.26	1113.6	833.79	228.7	1093.7	1039.4	-236.91	1162.8	28.948	3.3963	1097.3	1541.2	-98.204	1164.8	98.365	105.64	1209	95.678	29.334	1102.2	75.494	58.092	1057.8	66.256	18.367	984.2	1156.5	-24.464	1028.6	1054	164.8	982.17	34.926	-31.896	1177.2	24.8	-61.381
921	4.605	1126.5	779.41	276.46	9	2014	4	1105.9	1198.1	232.18	1257.6	1586.5	-86.041	1099.3	164.25	-39.596	1125.1	600.59	-159.68	1099.9	252.55	-99.263	1237.3	978.18	142.5	1119.6	250.15	-41.328	1267.1	1593.1	7.604	1144.6	1378.9	-174.38	1146.6	757.92	-223.03	1047.6	1082.4	257.27	1231.9	24.278	-24.073	1137.5	1378.2	134.67	1113.2	1558.6	44.02	1261.5	590.3	174.82	1156.7	1200.6	-270.3	1316.1	825.14	-292.88	1046.1	935	273.75	1063.8	825.76	275.57	1291.4	514.22	153.3	1252.2	962.22	-148.37	1244.8	970.2	-2.9389	1225.6	665.84	193.35	1204.7	1339.7	-20.637	1190.8	681.34	-172.14	1283.9	863.7	-253.24	1290.4	272.46	88.75	1067.8	1421.9	-17.774	1260.9	1235.4	-9.0271	1112.9	479.23	-125.42	1009.9	1328.2	85.689	1140.2	1074	-303.57	1298.2	45.315	66.166	1187.1	942.11	-311.77	1190.2	743.63	214.97	1258.2	192.13	86.925	1140	334.31	-43.58	1279.6	692.44	194.02	1243.8	838.68	-309.63	1350	45.54	106.15	999.09	969.15	-54.468	996.91	969.05	35.507	1321.6	353.32	94.894	1181.4	871.18	-100.2	1121.4	969.65	-6.2095	1244.8	970.2	-2.9389	1171.3	882.03	97.587	998	969.1	-9.4802	1324.7	970.67	1.1316	1244.5	1050.1	-7.3346	1240.7	974.58	76.836	1135.4	680.65	-186.39	1258.6	283.27	142.42	1118.1	833.31	228.74	1101	1039	-237.68	1162.9	28.906	3.3776	1103	1540.9	-97.911	1183.7	94.382	105.01	1223.8	92.423	28.876	1121.9	69.436	57.393	1058.1	66.219	18.424	989.56	1156.2	-24.624	1033.3	1053.8	164.17	982.13	35.187	-31.831	1177.4	24.723	-61.28
